<svg width="1715" height="435" viewBox="0 0 1715 435" fill="none" xmlns="http://www.w3.org/2000/svg">
<path fill-rule="evenodd" clip-rule="evenodd" d="M0 145.002H145.002V289.998L0 145.002V289.998L145.002 435V289.998H289.998V145.002H145.002L289.998 0H145.002L0 145.002ZM289.998 289.998L145.002 435L289.998 434.994L435 289.998H289.998ZM289.998 0V145.002L435 289.998V145.002L289.998 0Z" fill="#FF8200"/>
<path d="M531 186.346C531 183.391 531.959 181.114 533.876 179.516C535.872 177.839 538.668 177 542.262 177V253.688C542.262 256.644 541.264 258.961 539.267 260.638C537.35 262.236 534.594 263.035 531 263.035V186.346Z" fill="#6F8295"/>
<path d="M561.482 209.832C561.482 203.921 564.837 200.965 571.546 200.965V208.634C570.827 209.353 569.989 210.431 569.03 211.869L569.509 212.349C571.906 208.993 575.021 206.277 578.855 204.2C582.689 202.044 586.842 200.965 591.315 200.965C597.785 200.965 602.897 202.882 606.651 206.717C610.406 210.551 612.283 215.504 612.283 221.575V255.366C612.283 258.002 611.404 259.959 609.647 261.237C607.969 262.436 605.373 263.035 601.859 263.035V222.654C601.859 218.819 600.781 215.784 598.624 213.547C596.467 211.31 593.192 210.192 588.799 210.192C585.844 210.192 583.048 210.831 580.412 212.109C577.856 213.307 575.78 214.985 574.182 217.142C572.665 219.219 571.906 221.495 571.906 223.972V255.366C571.906 258.002 571.027 259.959 569.27 261.237C567.592 262.436 564.997 263.035 561.482 263.035V209.832Z" fill="#6F8295"/>
<path d="M649.749 263.035C642.88 263.035 637.289 261.158 632.976 257.403C628.742 253.569 626.625 248.496 626.625 242.185V221.695C626.625 217.621 627.624 214.026 629.621 210.911C631.618 207.715 634.373 205.279 637.888 203.601C641.482 201.844 645.596 200.965 650.229 200.965C653.983 200.965 657.457 201.764 660.652 203.362C663.847 204.879 666.643 206.916 669.039 209.473L669.399 208.874C668.839 208.075 668.001 207.196 666.882 206.237V185.148C666.882 182.512 667.761 180.515 669.518 179.157C671.276 177.719 673.911 177 677.426 177V254.527C677.426 257.163 676.627 259.24 675.03 260.758C673.512 262.276 671.036 263.035 667.601 263.035V256.325C668.72 254.887 669.478 253.848 669.878 253.209L669.518 252.73C666.962 255.925 664.127 258.442 661.012 260.279C657.897 262.116 654.142 263.035 649.749 263.035ZM652.026 253.808C656.259 253.808 659.814 252.73 662.689 250.573C665.565 248.336 667.002 245.58 667.002 242.305V221.575C667.002 218.38 665.644 215.704 662.929 213.547C660.213 211.31 656.539 210.192 651.906 210.192C647.193 210.192 643.519 211.27 640.883 213.427C638.327 215.504 637.049 218.42 637.049 222.174V241.706C637.049 245.62 638.327 248.616 640.883 250.693C643.519 252.77 647.233 253.808 652.026 253.808Z" fill="#6F8295"/>
<path d="M718.247 263.035C713.375 263.035 709.022 262.116 705.188 260.279C701.354 258.362 698.359 255.765 696.202 252.49C694.045 249.135 692.967 245.381 692.967 241.227V223.492C692.967 219.259 694.085 215.424 696.322 211.989C698.638 208.554 701.713 205.878 705.547 203.961C709.461 201.964 713.695 200.965 718.247 200.965C722.8 200.965 726.954 201.924 730.708 203.841C734.542 205.758 737.537 208.394 739.694 211.749C741.93 215.105 743.049 218.899 743.049 223.133V230.802C743.049 232.08 742.569 233.158 741.611 234.037C740.652 234.916 739.494 235.355 738.136 235.355H703.151V240.747C703.151 244.821 704.429 248.097 706.985 250.573C709.621 253.049 713.375 254.288 718.247 254.288C723.12 254.288 726.834 253.209 729.39 251.052C731.946 248.895 733.224 245.98 733.224 242.305C735.62 242.145 737.617 242.625 739.215 243.743C740.892 244.781 741.731 246.339 741.731 248.416C741.731 250.972 740.613 253.369 738.376 255.606C736.219 257.842 733.344 259.64 729.749 260.998C726.155 262.356 722.321 263.035 718.247 263.035ZM733.344 227.207V223.133C733.344 219.139 731.946 215.903 729.15 213.427C726.435 210.871 722.8 209.593 718.247 209.593C713.695 209.593 710.02 210.871 707.225 213.427C704.509 215.903 703.151 219.139 703.151 223.133V227.207H733.344Z" fill="#6F8295"/>
<path d="M756.88 209.473C756.88 206.837 757.678 204.76 759.276 203.242C760.953 201.724 763.469 200.965 766.824 200.965V207.675L764.428 210.791L764.787 211.27C767.263 208.075 770.099 205.558 773.294 203.721C776.489 201.884 780.283 200.965 784.676 200.965C791.545 200.965 797.097 202.882 801.33 206.717C805.563 210.471 807.68 215.504 807.68 221.815V242.305C807.68 248.616 805.484 253.649 801.09 257.403C796.697 261.158 790.986 263.035 783.957 263.035C780.203 263.035 776.729 262.276 773.534 260.758C770.418 259.16 767.663 257.084 765.266 254.527L764.907 255.126C765.466 255.925 766.305 256.804 767.423 257.763V278.852C767.423 284.284 763.909 287 756.88 287V209.473ZM782.4 253.808C787.112 253.808 790.787 252.77 793.422 250.693C796.058 248.536 797.376 245.58 797.376 241.826V222.294C797.376 218.38 796.058 215.384 793.422 213.307C790.787 211.23 787.072 210.192 782.28 210.192C778.046 210.192 774.492 211.31 771.616 213.547C768.741 215.704 767.303 218.42 767.303 221.695V242.425C767.303 245.62 768.661 248.336 771.377 250.573C774.093 252.73 777.767 253.808 782.4 253.808Z" fill="#6F8295"/>
<path d="M847.303 263.035C842.431 263.035 838.078 262.116 834.244 260.279C830.41 258.362 827.415 255.765 825.258 252.49C823.101 249.135 822.023 245.381 822.023 241.227V223.492C822.023 219.259 823.141 215.424 825.378 211.989C827.694 208.554 830.769 205.878 834.603 203.961C838.517 201.964 842.751 200.965 847.303 200.965C851.856 200.965 856.01 201.924 859.764 203.841C863.598 205.758 866.593 208.394 868.75 211.749C870.986 215.105 872.105 218.899 872.105 223.133V230.802C872.105 232.08 871.625 233.158 870.667 234.037C869.708 234.916 868.55 235.355 867.192 235.355H832.207V240.747C832.207 244.821 833.485 248.097 836.041 250.573C838.677 253.049 842.431 254.288 847.303 254.288C852.176 254.288 855.89 253.209 858.446 251.052C861.002 248.895 862.28 245.98 862.28 242.305C864.676 242.145 866.673 242.625 868.271 243.743C869.948 244.781 870.787 246.339 870.787 248.416C870.787 250.972 869.668 253.369 867.432 255.606C865.275 257.842 862.4 259.64 858.805 260.998C855.211 262.356 851.377 263.035 847.303 263.035ZM862.4 227.207V223.133C862.4 219.139 861.002 215.903 858.206 213.427C855.491 210.871 851.856 209.593 847.303 209.593C842.751 209.593 839.076 210.871 836.281 213.427C833.565 215.903 832.207 219.139 832.207 223.133V227.207H862.4Z" fill="#6F8295"/>
<path d="M885.936 209.832C885.936 203.921 889.29 200.965 896 200.965V208.634C895.281 209.353 894.442 210.431 893.484 211.869L893.963 212.349C896.359 208.993 899.474 206.277 903.308 204.2C907.142 202.044 911.296 200.965 915.769 200.965C922.239 200.965 927.351 202.882 931.105 206.717C934.859 210.551 936.736 215.504 936.736 221.575V255.366C936.736 258.002 935.857 259.959 934.1 261.237C932.423 262.436 929.827 263.035 926.312 263.035V222.654C926.312 218.819 925.234 215.784 923.077 213.547C920.921 211.31 917.646 210.192 913.253 210.192C910.297 210.192 907.502 210.831 904.866 212.109C902.31 213.307 900.233 214.985 898.636 217.142C897.118 219.219 896.359 221.495 896.359 223.972V255.366C896.359 258.002 895.481 259.959 893.723 261.237C892.046 262.436 889.45 263.035 885.936 263.035V209.832Z" fill="#6F8295"/>
<path d="M974.203 263.035C967.334 263.035 961.742 261.158 957.429 257.403C953.196 253.569 951.079 248.496 951.079 242.185V221.695C951.079 217.621 952.077 214.026 954.074 210.911C956.071 207.715 958.827 205.279 962.341 203.601C965.936 201.844 970.049 200.965 974.682 200.965C978.436 200.965 981.911 201.764 985.106 203.362C988.301 204.879 991.096 206.916 993.493 209.473L993.852 208.874C993.293 208.075 992.454 207.196 991.336 206.237V185.148C991.336 182.512 992.215 180.515 993.972 179.157C995.729 177.719 998.365 177 1001.88 177V254.527C1001.88 257.163 1001.08 259.24 999.483 260.758C997.966 262.276 995.49 263.035 992.055 263.035V256.325C993.173 254.887 993.932 253.848 994.331 253.209L993.972 252.73C991.416 255.925 988.58 258.442 985.465 260.279C982.35 262.116 978.596 263.035 974.203 263.035ZM976.479 253.808C980.713 253.808 984.267 252.73 987.143 250.573C990.018 248.336 991.456 245.58 991.456 242.305V221.575C991.456 218.38 990.098 215.704 987.382 213.547C984.666 211.31 980.992 210.192 976.359 210.192C971.647 210.192 967.973 211.27 965.337 213.427C962.781 215.504 961.503 218.42 961.503 222.174V241.706C961.503 245.62 962.781 248.616 965.337 250.693C967.973 252.77 971.687 253.808 976.479 253.808Z" fill="#6F8295"/>
<path d="M1042.7 263.035C1037.83 263.035 1033.48 262.116 1029.64 260.279C1025.81 258.362 1022.81 255.765 1020.66 252.49C1018.5 249.135 1017.42 245.381 1017.42 241.227V223.492C1017.42 219.259 1018.54 215.424 1020.78 211.989C1023.09 208.554 1026.17 205.878 1030 203.961C1033.91 201.964 1038.15 200.965 1042.7 200.965C1047.25 200.965 1051.41 201.924 1055.16 203.841C1059 205.758 1061.99 208.394 1064.15 211.749C1066.38 215.105 1067.5 218.899 1067.5 223.133V230.802C1067.5 232.08 1067.02 233.158 1066.06 234.037C1065.11 234.916 1063.95 235.355 1062.59 235.355H1027.6V240.747C1027.6 244.821 1028.88 248.097 1031.44 250.573C1034.07 253.049 1037.83 254.288 1042.7 254.288C1047.57 254.288 1051.29 253.209 1053.84 251.052C1056.4 248.895 1057.68 245.98 1057.68 242.305C1060.07 242.145 1062.07 242.625 1063.67 243.743C1065.35 244.781 1066.18 246.339 1066.18 248.416C1066.18 250.972 1065.07 253.369 1062.83 255.606C1060.67 257.842 1057.8 259.64 1054.2 260.998C1050.61 262.356 1046.77 263.035 1042.7 263.035ZM1057.8 227.207V223.133C1057.8 219.139 1056.4 215.903 1053.6 213.427C1050.89 210.871 1047.25 209.593 1042.7 209.593C1038.15 209.593 1034.47 210.871 1031.68 213.427C1028.96 215.903 1027.6 219.139 1027.6 223.133V227.207H1057.8Z" fill="#6F8295"/>
<path d="M1081.33 209.832C1081.33 203.921 1084.69 200.965 1091.4 200.965V208.634C1090.68 209.353 1089.84 210.431 1088.88 211.869L1089.36 212.349C1091.76 208.993 1094.87 206.277 1098.71 204.2C1102.54 202.044 1106.69 200.965 1111.17 200.965C1117.64 200.965 1122.75 202.882 1126.5 206.717C1130.26 210.551 1132.13 215.504 1132.13 221.575V255.366C1132.13 258.002 1131.26 259.959 1129.5 261.237C1127.82 262.436 1125.22 263.035 1121.71 263.035V222.654C1121.71 218.819 1120.63 215.784 1118.47 213.547C1116.32 211.31 1113.04 210.192 1108.65 210.192C1105.69 210.192 1102.9 210.831 1100.26 212.109C1097.71 213.307 1095.63 214.985 1094.03 217.142C1092.52 219.219 1091.76 221.495 1091.76 223.972V255.366C1091.76 258.002 1090.88 259.959 1089.12 261.237C1087.44 262.436 1084.85 263.035 1081.33 263.035V209.832Z" fill="#6F8295"/>
<path d="M1171.52 263.035C1165.85 263.035 1161.61 261.437 1158.82 258.242C1156.02 254.967 1154.62 250.693 1154.62 245.42V210.431H1143.48C1143.48 207.715 1144.08 205.638 1145.28 204.2C1146.48 202.763 1148.11 202.044 1150.19 202.044H1154.74V190.66C1154.74 188.024 1155.58 186.107 1157.26 184.909C1159.02 183.63 1161.61 182.991 1165.05 182.991V202.044H1180.98C1180.98 207.635 1178.47 210.431 1173.43 210.431H1165.17V245.061C1165.17 248.256 1165.73 250.533 1166.84 251.891C1168.04 253.169 1170.16 253.808 1173.19 253.808C1175.99 253.808 1178.63 253.089 1181.1 251.651C1182.14 252.69 1182.66 254.088 1182.66 255.845C1182.66 257.763 1181.66 259.44 1179.66 260.878C1177.67 262.316 1174.95 263.035 1171.52 263.035Z" fill="#6F8295"/>
<path d="M1226.18 209.832C1226.18 203.921 1229.5 200.965 1236.13 200.965V208.634C1235.09 209.752 1234.25 210.831 1233.61 211.869L1234.09 212.349C1236.65 208.754 1239.36 205.958 1242.24 203.961C1245.12 201.964 1248.43 200.965 1252.18 200.965C1259.45 200.965 1264.44 204.44 1267.16 211.39C1271.71 204.44 1277.78 200.965 1285.37 200.965C1291.04 200.965 1295.4 202.882 1298.43 206.717C1301.55 210.471 1303.1 215.424 1303.1 221.575V255.366C1303.1 258.002 1302.23 259.959 1300.47 261.237C1298.79 262.436 1296.24 263.035 1292.8 263.035V222.174C1292.8 218.34 1292 215.344 1290.4 213.187C1288.81 211.031 1286.29 209.952 1282.86 209.952C1279.26 209.952 1276.19 211.19 1273.63 213.667C1271.07 216.063 1269.8 219.298 1269.8 223.373V255.366C1269.8 258.002 1268.96 259.959 1267.28 261.237C1265.6 262.436 1263.05 263.035 1259.61 263.035V222.174C1259.61 218.34 1258.81 215.344 1257.22 213.187C1255.62 211.031 1253.1 209.952 1249.67 209.952C1245.99 209.952 1242.88 211.27 1240.32 213.906C1237.77 216.542 1236.49 219.778 1236.49 223.612V255.366C1236.49 258.002 1235.61 259.959 1233.85 261.237C1232.18 262.436 1229.62 263.035 1226.18 263.035V209.832Z" fill="#6F8295"/>
<path d="M1342.82 263.035C1337.95 263.035 1333.59 262.116 1329.76 260.279C1325.92 258.362 1322.93 255.765 1320.77 252.49C1318.62 249.135 1317.54 245.381 1317.54 241.227V223.492C1317.54 219.259 1318.66 215.424 1320.89 211.989C1323.21 208.554 1326.28 205.878 1330.12 203.961C1334.03 201.964 1338.26 200.965 1342.82 200.965C1347.37 200.965 1351.52 201.924 1355.28 203.841C1359.11 205.758 1362.11 208.394 1364.26 211.749C1366.5 215.105 1367.62 218.899 1367.62 223.133V230.802C1367.62 232.08 1367.14 233.158 1366.18 234.037C1365.22 234.916 1364.06 235.355 1362.71 235.355H1327.72V240.747C1327.72 244.821 1329 248.097 1331.56 250.573C1334.19 253.049 1337.95 254.288 1342.82 254.288C1347.69 254.288 1351.4 253.209 1353.96 251.052C1356.52 248.895 1357.79 245.98 1357.79 242.305C1360.19 242.145 1362.19 242.625 1363.78 243.743C1365.46 244.781 1366.3 246.339 1366.3 248.416C1366.3 250.972 1365.18 253.369 1362.95 255.606C1360.79 257.842 1357.91 259.64 1354.32 260.998C1350.73 262.356 1346.89 263.035 1342.82 263.035ZM1357.91 227.207V223.133C1357.91 219.139 1356.52 215.903 1353.72 213.427C1351 210.871 1347.37 209.593 1342.82 209.593C1338.26 209.593 1334.59 210.871 1331.79 213.427C1329.08 215.903 1327.72 219.139 1327.72 223.133V227.207H1357.91Z" fill="#6F8295"/>
<path d="M1381.45 209.832C1381.45 203.921 1384.76 200.965 1391.39 200.965V208.634C1390.36 209.752 1389.52 210.831 1388.88 211.869L1389.36 212.349C1391.91 208.754 1394.63 205.958 1397.5 203.961C1400.38 201.964 1403.69 200.965 1407.45 200.965C1414.72 200.965 1419.71 204.44 1422.43 211.39C1426.98 204.44 1433.05 200.965 1440.64 200.965C1446.31 200.965 1450.66 202.882 1453.7 206.717C1456.81 210.471 1458.37 215.424 1458.37 221.575V255.366C1458.37 258.002 1457.49 259.959 1455.73 261.237C1454.06 262.436 1451.5 263.035 1448.07 263.035V222.174C1448.07 218.34 1447.27 215.344 1445.67 213.187C1444.07 211.031 1441.56 209.952 1438.12 209.952C1434.53 209.952 1431.45 211.19 1428.9 213.667C1426.34 216.063 1425.06 219.298 1425.06 223.373V255.366C1425.06 258.002 1424.22 259.959 1422.55 261.237C1420.87 262.436 1418.31 263.035 1414.88 263.035V222.174C1414.88 218.34 1414.08 215.344 1412.48 213.187C1410.88 211.031 1408.37 209.952 1404.93 209.952C1401.26 209.952 1398.14 211.27 1395.59 213.906C1393.03 216.542 1391.75 219.778 1391.75 223.612V255.366C1391.75 258.002 1390.87 259.959 1389.12 261.237C1387.44 262.436 1384.88 263.035 1381.45 263.035V209.832Z" fill="#6F8295"/>
<path d="M1474 185.148C1474 179.716 1477.51 177 1484.54 177V206.237C1483.35 207.276 1482.51 208.155 1482.03 208.874L1482.39 209.473C1484.78 206.916 1487.7 204.879 1491.13 203.362C1494.65 201.764 1498.08 200.965 1501.44 200.965C1508.55 200.965 1514.22 202.842 1518.45 206.597C1522.68 210.351 1524.8 215.384 1524.8 221.695V242.185C1524.8 246.179 1523.8 249.774 1521.81 252.97C1519.89 256.165 1517.17 258.641 1513.66 260.399C1510.14 262.156 1506.15 263.035 1501.68 263.035C1493.85 263.035 1487.26 259.6 1481.91 252.73L1481.55 253.209C1482.03 253.928 1482.83 254.927 1483.94 256.205C1483.94 258.521 1483.15 260.239 1481.55 261.357C1479.95 262.476 1477.43 263.035 1474 263.035V185.148ZM1499.4 253.808C1504.27 253.808 1507.99 252.77 1510.54 250.693C1513.18 248.616 1514.5 245.62 1514.5 241.706V222.174C1514.5 218.42 1513.18 215.504 1510.54 213.427C1507.91 211.27 1504.23 210.192 1499.52 210.192C1495.37 210.192 1491.81 211.31 1488.86 213.547C1485.9 215.784 1484.42 218.46 1484.42 221.575V242.305C1484.42 245.58 1485.86 248.336 1488.74 250.573C1491.61 252.73 1495.17 253.808 1499.4 253.808Z" fill="#6F8295"/>
<path d="M1564.42 263.035C1559.55 263.035 1555.2 262.116 1551.36 260.279C1547.53 258.362 1544.54 255.765 1542.38 252.49C1540.22 249.135 1539.14 245.381 1539.14 241.227V223.492C1539.14 219.259 1540.26 215.424 1542.5 211.989C1544.81 208.554 1547.89 205.878 1551.72 203.961C1555.64 201.964 1559.87 200.965 1564.42 200.965C1568.98 200.965 1573.13 201.924 1576.88 203.841C1580.72 205.758 1583.71 208.394 1585.87 211.749C1588.11 215.105 1589.23 218.899 1589.23 223.133V230.802C1589.23 232.08 1588.75 233.158 1587.79 234.037C1586.83 234.916 1585.67 235.355 1584.31 235.355H1549.33V240.747C1549.33 244.821 1550.61 248.097 1553.16 250.573C1555.8 253.049 1559.55 254.288 1564.42 254.288C1569.3 254.288 1573.01 253.209 1575.57 251.052C1578.12 248.895 1579.4 245.98 1579.4 242.305C1581.8 242.145 1583.79 242.625 1585.39 243.743C1587.07 244.781 1587.91 246.339 1587.91 248.416C1587.91 250.972 1586.79 253.369 1584.55 255.606C1582.4 257.842 1579.52 259.64 1575.93 260.998C1572.33 262.356 1568.5 263.035 1564.42 263.035ZM1579.52 227.207V223.133C1579.52 219.139 1578.12 215.903 1575.33 213.427C1572.61 210.871 1568.98 209.593 1564.42 209.593C1559.87 209.593 1556.2 210.871 1553.4 213.427C1550.69 215.903 1549.33 219.139 1549.33 223.133V227.207H1579.52Z" fill="#6F8295"/>
<path d="M1629.06 210.192C1624.58 210.192 1620.87 211.55 1617.91 214.266C1614.96 216.902 1613.48 220.137 1613.48 223.972V255.366C1613.48 258.002 1612.6 259.959 1610.84 261.237C1609.17 262.436 1606.57 263.035 1603.06 263.035V209.832C1603.06 203.921 1606.41 200.965 1613.12 200.965V208.275C1611.84 209.633 1610.96 210.831 1610.48 211.869L1610.96 212.349C1616.08 204.76 1622.47 200.965 1630.13 200.965C1633.01 200.965 1635.21 201.684 1636.72 203.122C1638.24 204.48 1639 206.158 1639 208.155C1639 209.593 1638.64 210.871 1637.92 211.989C1635.69 210.791 1632.73 210.192 1629.06 210.192Z" fill="#6F8295"/>
<path d="M596.339 105.714V2.07282H618.562V105.714H596.339ZM531 105.714V2.07282H553.224V105.714H531ZM539.89 64.1092L540.038 43.9733H607.747V64.1092H539.89Z" fill="#002E5D"/>
<path d="M717.746 105.714L706.486 93.8689L699.671 87.3544L676.558 62.4806C673.2 58.8285 670.236 55.3738 667.668 52.1165C665.199 48.8592 663.125 45.7994 661.446 42.9369C659.865 39.9757 658.68 37.212 657.89 34.6456C657.099 32.0793 656.704 29.661 656.704 27.3908C656.704 22.1594 658.087 17.4709 660.853 13.3252C663.619 9.17962 667.421 5.92233 672.261 3.5534C677.101 1.18447 682.731 0 689.151 0C693.893 0 698.337 0.838998 702.486 2.51699C706.733 4.09628 710.388 6.3665 713.45 9.32767C716.512 12.2888 718.685 15.6942 719.969 19.5437L703.523 29.4636C701.844 25.318 699.868 22.4062 697.597 20.7282C695.424 19.0502 692.757 18.2112 689.596 18.2112C687.225 18.2112 685.2 18.606 683.521 19.3956C681.842 20.1853 680.509 21.3204 679.521 22.801C678.632 24.1829 678.188 25.9595 678.188 28.1311C678.188 30.2039 678.928 32.5728 680.41 35.2379C681.892 37.9029 683.719 40.6667 685.892 43.5291C688.164 46.2929 690.435 48.9579 692.707 51.5243C695.078 53.9919 697.103 56.1634 698.782 58.0388L713.005 73.4369L721.302 81.284L744.119 105.714H717.746ZM679.521 107.194C672.014 107.194 665.248 105.714 659.223 102.752C653.198 99.6926 648.407 95.6456 644.852 90.6116C641.296 85.479 639.518 79.8527 639.518 73.733C639.518 66.3301 641.592 59.7662 645.741 54.0413C649.988 48.3163 656.26 43.924 664.557 40.8641L677.595 54.3374C671.866 55.5218 667.52 57.5947 664.557 60.5558C661.692 63.4183 660.26 67.1691 660.26 71.8083C660.26 75.4604 661.1 78.6189 662.779 81.284C664.557 83.949 667.076 86.0218 670.335 87.5024C673.595 88.983 677.546 89.7233 682.188 89.7233C686.238 89.7233 689.991 88.8843 693.448 87.2063C697.004 85.5283 700.165 83.2087 702.93 80.2476C705.696 77.1877 707.968 73.5849 709.746 69.4393C711.524 65.195 712.758 60.4571 713.45 55.2257H732.859C731.97 61.4442 730.439 67.2184 728.266 72.5485C726.191 77.8786 723.525 82.7152 720.265 87.0583C717.104 91.3026 713.45 94.9547 709.301 98.0146C705.153 100.976 700.56 103.246 695.522 104.825C690.584 106.405 685.25 107.194 679.521 107.194Z" fill="#002E5D"/>
<path d="M836.374 122L796.815 69.1432L813.557 57.4466L852.671 110.007L836.374 122ZM804.668 107.194C797.062 107.194 790.049 105.862 783.629 103.197C777.209 100.532 771.578 96.8301 766.739 92.0922C761.997 87.2557 758.343 81.5801 755.775 75.0655C753.207 68.4523 751.923 61.2961 751.923 53.5971C751.923 45.7994 753.207 38.6926 755.775 32.2767C758.343 25.7621 761.997 20.0866 766.739 15.25C771.578 10.4134 777.209 6.66262 783.629 3.99757C790.049 1.33252 797.062 0 804.668 0C812.372 0 819.385 1.33252 825.706 3.99757C832.126 6.66262 837.707 10.4134 842.448 15.25C847.288 20.0866 850.992 25.7621 853.56 32.2767C856.128 38.7913 857.412 45.8981 857.412 53.5971C857.412 61.2961 856.128 68.4029 853.56 74.9175C850.992 81.432 847.288 87.1076 842.448 91.9442C837.707 96.7807 832.126 100.532 825.706 103.197C819.385 105.862 812.372 107.194 804.668 107.194ZM804.668 86.1699C809.014 86.1699 813.014 85.3803 816.668 83.801C820.422 82.2217 823.632 79.9515 826.299 76.9903C828.966 74.0291 831.04 70.5744 832.522 66.6262C834.102 62.678 834.892 58.335 834.892 53.5971C834.892 48.8592 834.102 44.5162 832.522 40.568C831.04 36.6197 828.966 33.2144 826.299 30.3519C823.632 27.3908 820.422 25.1206 816.668 23.5413C813.014 21.8633 809.014 21.0243 804.668 21.0243C800.321 21.0243 796.321 21.8633 792.667 23.5413C789.012 25.1206 785.802 27.3908 783.036 30.3519C780.271 33.2144 778.147 36.6197 776.665 40.568C775.282 44.5162 774.591 48.8592 774.591 53.5971C774.591 58.335 775.282 62.678 776.665 66.6262C778.147 70.5744 780.271 74.0291 783.036 76.9903C785.802 79.9515 789.012 82.2217 792.667 83.801C796.321 85.3803 800.321 86.1699 804.668 86.1699Z" fill="#002E5D"/>
<path d="M910.661 105.714L951.257 2.07282H971.11L1011.56 105.714H988.741L967.851 49.8956C967.258 48.3163 966.517 46.2929 965.628 43.8252C964.838 41.3576 963.998 38.7419 963.109 35.9782C962.22 33.2144 961.381 30.5987 960.591 28.1311C959.801 25.5647 959.208 23.4426 958.813 21.7646L962.813 21.6165C962.221 23.8867 961.529 26.2557 960.739 28.7233C960.047 31.0922 959.307 33.5599 958.516 36.1262C957.726 38.5939 956.887 41.0121 955.998 43.3811C955.109 45.75 954.269 48.0696 953.479 50.3398L932.589 105.714H910.661ZM929.477 83.949L936.737 66.034H984.296L991.704 83.949H929.477Z" fill="#002E5D"/>
<path d="M1026.12 105.714V2.07282H1068.64C1076.25 2.07282 1083.11 3.35599 1089.24 5.92233C1095.46 8.38997 1100.79 11.9434 1105.24 16.5825C1109.78 21.123 1113.24 26.5518 1115.61 32.8689C1117.98 39.1861 1119.16 46.1942 1119.16 53.8932C1119.16 61.4935 1117.98 68.5016 1115.61 74.9175C1113.24 81.2346 1109.83 86.7128 1105.39 91.3519C1100.94 95.8924 1095.61 99.4458 1089.38 102.012C1083.16 104.48 1076.25 105.714 1068.64 105.714H1026.12ZM1048.34 89.5752L1045.97 85.7257H1067.9C1072.35 85.7257 1076.35 84.9854 1079.9 83.5049C1083.46 81.9256 1086.47 79.8034 1088.94 77.1384C1091.51 74.3746 1093.43 71.0186 1094.72 67.0704C1096 63.1222 1096.64 58.7298 1096.64 53.8932C1096.64 49.0566 1096 44.7136 1094.72 40.8641C1093.43 36.9159 1091.51 33.5599 1088.94 30.7961C1086.47 28.0324 1083.46 25.9102 1079.9 24.4296C1076.35 22.8503 1072.35 22.0607 1067.9 22.0607H1045.53L1048.34 18.5073V89.5752Z" fill="#002E5D"/>
<path d="M1164.26 105.714L1122.93 2.07282H1146.49L1168.12 58.1869C1169.3 61.2468 1170.29 63.9612 1171.08 66.3301C1171.97 68.6003 1172.71 70.7718 1173.3 72.8447C1173.99 74.8188 1174.64 76.7929 1175.23 78.767C1175.82 80.6424 1176.41 82.7152 1177.01 84.9854L1172.71 85.1335C1173.5 82.0736 1174.29 79.2605 1175.08 76.6942C1175.87 74.0291 1176.76 71.2654 1177.75 68.4029C1178.73 65.5405 1179.97 62.1351 1181.45 58.1869L1201.9 2.07282H1225.31L1183.67 105.714H1164.26Z" fill="#002E5D"/>
<path d="M1237.74 105.714V86.6141H1255.07V21.1723H1237.74V2.07282H1294.63V21.1723H1277.29V86.6141H1294.63V105.714H1237.74Z" fill="#002E5D"/>
<path d="M1352.6 107.194C1346.18 107.194 1340.3 106.405 1334.97 104.825C1329.73 103.246 1325.04 100.926 1320.89 97.8665C1316.84 94.8066 1313.19 91.1052 1309.93 86.7621L1323.86 70.9199C1328.7 77.6319 1333.49 82.2217 1338.23 84.6893C1343.07 87.0582 1348.3 88.2427 1353.93 88.2427C1357 88.2427 1359.71 87.8479 1362.08 87.0583C1364.55 86.1699 1366.48 84.9361 1367.86 83.3568C1369.24 81.7775 1369.93 79.9021 1369.93 77.7306C1369.93 76.1513 1369.59 74.7201 1368.9 73.4369C1368.21 72.055 1367.22 70.8705 1365.93 69.8835C1364.65 68.7977 1363.12 67.86 1361.34 67.0704C1359.56 66.182 1357.59 65.4418 1355.41 64.8495C1353.24 64.1586 1350.87 63.6157 1348.3 63.2209C1342.77 61.9377 1337.93 60.4078 1333.78 58.6311C1329.63 56.7557 1326.18 54.4854 1323.41 51.8204C1320.65 49.0566 1318.57 45.9474 1317.19 42.4927C1315.91 39.038 1315.26 35.1392 1315.26 30.7961C1315.26 26.3544 1316.25 22.2581 1318.23 18.5073C1320.2 14.6578 1322.92 11.3511 1326.38 8.58738C1329.93 5.82363 1333.98 3.70146 1338.52 2.22087C1343.17 0.740291 1348.06 0 1353.19 0C1359.51 0 1365.05 0.740291 1369.79 2.22087C1374.53 3.60275 1378.63 5.62621 1382.08 8.29126C1385.64 10.9563 1388.6 14.2136 1390.97 18.0631L1376.9 31.6845C1374.82 28.9207 1372.55 26.6011 1370.08 24.7257C1367.71 22.8503 1365.09 21.4684 1362.23 20.5801C1359.46 19.593 1356.6 19.0995 1353.64 19.0995C1350.38 19.0995 1347.56 19.5437 1345.19 20.432C1342.82 21.2217 1340.94 22.4062 1339.56 23.9854C1338.28 25.5647 1337.64 27.4895 1337.64 29.7597C1337.64 31.5364 1338.08 33.1157 1338.97 34.4976C1339.86 35.8794 1341.14 37.1133 1342.82 38.199C1344.5 39.1861 1346.53 40.0744 1348.9 40.8641C1351.27 41.6537 1353.88 42.3447 1356.75 42.9369C1362.18 44.0227 1367.07 45.4539 1371.42 47.2306C1375.76 49.0073 1379.47 51.1788 1382.53 53.7451C1385.69 56.2128 1388.11 59.1739 1389.79 62.6286C1391.47 65.9846 1392.31 69.7848 1392.31 74.0291C1392.31 81.0372 1390.63 87.0089 1387.27 91.9442C1383.91 96.8794 1379.27 100.68 1373.34 103.345C1367.42 105.911 1360.5 107.194 1352.6 107.194Z" fill="#002E5D"/>
<path d="M1458.37 107.194C1450.76 107.194 1443.75 105.862 1437.33 103.197C1430.91 100.532 1425.28 96.8301 1420.44 92.0922C1415.7 87.2557 1412.04 81.5801 1409.47 75.0655C1406.9 68.4523 1405.62 61.2961 1405.62 53.5971C1405.62 45.7994 1406.9 38.6926 1409.47 32.2767C1412.04 25.7621 1415.7 20.0866 1420.44 15.25C1425.28 10.4134 1430.91 6.66262 1437.33 3.99757C1443.75 1.33252 1450.76 0 1458.37 0C1466.07 0 1473.08 1.33252 1479.4 3.99757C1485.82 6.66262 1491.4 10.4134 1496.15 15.25C1500.99 20.0866 1504.69 25.7621 1507.26 32.2767C1509.83 38.7913 1511.11 45.8981 1511.11 53.5971C1511.11 61.2961 1509.83 68.4029 1507.26 74.9175C1504.69 81.432 1500.99 87.1076 1496.15 91.9442C1491.4 96.7807 1485.82 100.532 1479.4 103.197C1473.08 105.862 1466.07 107.194 1458.37 107.194ZM1458.37 86.1699C1462.71 86.1699 1466.71 85.3803 1470.37 83.801C1474.12 82.2217 1477.33 79.9515 1480 76.9903C1482.66 74.0291 1484.74 70.5744 1486.22 66.6262C1487.8 62.678 1488.59 58.335 1488.59 53.5971C1488.59 48.8592 1487.8 44.5162 1486.22 40.568C1484.74 36.6197 1482.66 33.2144 1480 30.3519C1477.33 27.3908 1474.12 25.1206 1470.37 23.5413C1466.71 21.8633 1462.71 21.0243 1458.37 21.0243C1454.02 21.0243 1450.02 21.8633 1446.36 23.5413C1442.71 25.1206 1439.5 27.3908 1436.73 30.3519C1433.97 33.2144 1431.84 36.6197 1430.36 40.568C1428.98 44.5162 1428.29 48.8592 1428.29 53.5971C1428.29 58.335 1428.98 62.678 1430.36 66.6262C1431.84 70.5744 1433.97 74.0291 1436.73 76.9903C1439.5 79.9515 1442.71 82.2217 1446.36 83.801C1450.02 85.3803 1454.02 86.1699 1458.37 86.1699Z" fill="#002E5D"/>
<path d="M1531.22 105.714V2.07282H1577.15C1583.57 2.07282 1589.4 3.5534 1594.64 6.51457C1599.87 9.37702 1603.97 13.2759 1606.93 18.2112C1610 23.1464 1611.53 28.7727 1611.53 35.0898C1611.53 41.3083 1610 46.9838 1606.93 52.1165C1603.97 57.1505 1599.87 61.1481 1594.64 64.1092C1589.4 67.0704 1583.57 68.551 1577.15 68.551H1552.71V105.714H1531.22ZM1590.04 105.714L1563.67 58.9272L1586.49 55.2257L1615.82 105.862L1590.04 105.714ZM1552.71 50.4879H1576.12C1578.78 50.4879 1581.1 49.8956 1583.08 48.7112C1585.15 47.428 1586.73 45.7006 1587.82 43.5291C1588.91 41.2589 1589.45 38.7419 1589.45 35.9782C1589.45 33.017 1588.81 30.4506 1587.52 28.2791C1586.24 26.1076 1584.36 24.4296 1581.89 23.2451C1579.43 21.962 1576.56 21.3204 1573.3 21.3204H1552.71V50.4879Z" fill="#002E5D"/>
<path d="M1654.7 105.714V54.0413L1655.74 61.2961L1613.81 2.07282H1639.44L1671.44 47.9709L1661.37 47.5267L1690.26 2.07282H1715L1674.85 62.9248L1677.07 52.8568V105.714H1654.7Z" fill="#002E5D"/>
<path d="M607.922 432.043V366.461C607.922 363.117 607.922 357.592 608.359 352.504H608.213C607.486 355.121 604.724 362.1 602.688 366.461L584.366 406.887H569.823L551.21 366.752C549.323 362.536 546.706 355.848 545.543 352.504H545.397C545.543 355.266 545.83 358.319 545.83 366.461V432.043H531V334.617H551.94L571.426 378.532L576.805 391.617H576.951L582.33 378.532L601.671 334.617H622.756V432.043H607.922Z" fill="#002E5D"/>
<path d="M675.814 420.118C689.193 420.118 698.353 409.646 698.353 395.976C698.353 382.454 689.193 371.695 675.814 371.695C662.144 371.695 653.275 382.018 653.275 395.976C653.275 409.646 662.144 420.118 675.814 420.118ZM675.814 357.88C697.19 357.88 713.768 373.876 713.768 395.976C713.768 418.082 697.19 434.079 675.814 434.079C654.438 434.079 637.86 418.082 637.86 395.976C637.86 374.312 654.438 357.88 675.814 357.88Z" fill="#002E5D"/>
<path d="M766.687 373.586C765.379 373.149 763.634 372.859 760.287 372.859C751.999 372.859 746.184 376.057 743.421 380.274V432.04H728.152V359.915H741.967V366.752C744.294 363.696 749.528 358.461 759.999 358.461C763.489 358.461 765.524 358.752 766.687 359.188V373.586Z" fill="#002E5D"/>
<path d="M778.458 359.919H793.727V432.043H778.458V359.919ZM786.163 332C791.255 332 795.323 335.78 795.323 341.16C795.323 346.539 791.255 350.319 786.163 350.319C781.075 350.319 777 346.539 777 341.16C777 335.78 781.075 332 786.163 332Z" fill="#002E5D"/>
<path d="M853.919 376.639C849.994 373.295 842.143 370.968 835.888 370.968C829.054 370.968 824.692 373.731 824.692 377.657C824.692 382.164 828.036 383.912 831.962 385.656L845.193 391.469C852.029 394.525 860.175 399.759 860.175 412.263C860.175 425.642 849.267 434.079 832.834 434.079C823.82 434.079 814.075 430.731 810.15 427.969V414.011H811.168C814.366 416.774 825.274 420.845 831.962 420.845C840.104 420.845 845.193 417.791 845.193 412.554C845.193 407.756 841.852 405.284 837.341 403.394L826.146 398.738C820.04 395.979 809.859 390.309 809.859 378.383C809.859 366.313 819.891 357.88 833.561 357.88C843.012 357.88 851.593 360.936 854.94 363.408V376.639H853.919Z" fill="#002E5D"/>
<path d="M907.424 420.118C920.8 420.118 929.96 409.646 929.96 395.976C929.96 382.454 920.8 371.695 907.424 371.695C893.754 371.695 884.885 382.018 884.885 395.976C884.885 409.646 893.754 420.118 907.424 420.118ZM907.424 357.88C928.8 357.88 945.374 373.876 945.374 395.976C945.374 418.082 928.8 434.079 907.424 434.079C886.048 434.079 869.47 418.082 869.47 395.976C869.47 374.312 886.048 357.88 907.424 357.88Z" fill="#002E5D"/>
<path d="M975.028 432.043H959.762V359.919H973.574V366.607C976.336 363.554 984.478 357.883 993.932 357.883C1010.8 357.883 1020.69 367.625 1020.69 385.656V432.043H1005.42V387.11C1005.42 377.078 1000.04 371.55 990.152 371.55C983.9 371.55 976.918 376.061 975.028 378.678V432.043Z" fill="#002E5D"/>
<path d="M1149.65 339.851V355.408H1148.63C1140.49 348.575 1131.91 346.103 1121.29 346.103C1099.77 346.103 1085.37 363.117 1085.37 383.621C1085.37 404.993 1100.06 420.554 1121.73 420.554C1129.43 420.554 1135.25 419.391 1139.47 417.21V392.635H1113.87V378.965H1154.15V425.21C1146.74 430.877 1135.25 434.66 1121.29 434.66C1090.61 434.66 1069.52 413.139 1069.52 383.621C1069.52 354.681 1091.34 332 1121 332C1131.62 332 1141.5 334.472 1149.65 339.851Z" fill="#002E5D"/>
<path fill-rule="evenodd" clip-rule="evenodd" d="M1171.01 334.614H1186.27V432.04H1171.01V334.614Z" fill="#002E5D"/>
<path d="M1239.06 420.118C1252.43 420.118 1261.59 409.646 1261.59 395.976C1261.59 382.454 1252.43 371.695 1239.06 371.695C1225.39 371.695 1216.52 382.018 1216.52 395.976C1216.52 409.646 1225.39 420.118 1239.06 420.118ZM1239.06 357.88C1260.43 357.88 1277.01 373.876 1277.01 395.976C1277.01 418.082 1260.43 434.079 1239.06 434.079C1217.68 434.079 1201.1 418.082 1201.1 395.976C1201.1 374.312 1217.68 357.88 1239.06 357.88Z" fill="#002E5D"/>
<path d="M1348.1 395.834C1348.1 381.295 1338.94 371.55 1324.4 371.55C1315.68 371.55 1309.42 375.621 1306.66 378.532V413.866C1309.57 416.919 1316.26 420.408 1324.4 420.408C1338.36 420.408 1348.1 410.228 1348.1 395.834ZM1305.21 426.079V432.043H1291.39V334.617H1306.66V364.571C1310.01 361.809 1316.69 357.883 1327.16 357.883C1347.37 357.883 1363.52 373.149 1363.52 395.688C1363.52 418.518 1346.65 434.079 1327.16 434.079C1316.11 434.079 1308.55 429.426 1305.21 426.079Z" fill="#002E5D"/>
<path d="M1388.23 410.228C1388.23 417.937 1394.77 421.426 1402.77 421.426C1409.6 421.426 1415.13 418.373 1418.18 415.026V400.341C1416.58 399.323 1412.8 398.16 1406.4 398.16C1395.93 398.16 1388.23 402.522 1388.23 410.228ZM1380.52 377.947V364.135C1383.28 362.1 1392.88 357.88 1403.64 357.88C1420.94 357.88 1433.45 366.461 1433.45 383.472V432.043H1419.63V426.224C1416.87 429.426 1409.6 434.079 1398.84 434.079C1384.3 434.079 1372.81 425.352 1372.81 410.667C1372.81 395.107 1386.92 386.529 1403.78 386.529C1410.33 386.529 1415.85 387.983 1418.18 388.997V384.926C1418.18 375.476 1411.78 371.259 1402.04 371.259C1393.46 371.259 1385.46 374.603 1381.54 377.947H1380.52Z" fill="#002E5D"/>
<path fill-rule="evenodd" clip-rule="evenodd" d="M1452.49 334.614H1467.75V432.04H1452.49V334.614Z" fill="#002E5D"/>
</svg>
